<svg width="512" height="512" viewBox="0 0 512 512" fill="none" xmlns="http://www.w3.org/2000/svg">
  <g fill="none" stroke-linecap="round" stroke-linejoin="round">
    <path
      d="M74 162V360C132 350 190 358 256 418C322 358 380 350 438 360V162"
      stroke="#2168AF"
      stroke-width="24"
    />
    <path
      d="M102 136V320C150 316 198 326 256 388C314 326 362 316 410 320V136"
      stroke="#4FC767"
      stroke-width="20"
    />
    <path d="M102 136C162 138 210 158 248 198" stroke="#4FC767" stroke-width="20" />
    <path d="M410 136C350 138 302 158 264 198" stroke="#4FC767" stroke-width="20" />

    <path d="M164 208C198 214 224 228 252 228" stroke="#4FC767" stroke-width="18" />
    <path d="M348 208C314 214 288 228 260 228" stroke="#2F88B8" stroke-width="18" />

    <path
      d="M252 230L224 258C217 265 218 276 227 281C235 286 245 283 251 277L270 260"
      stroke="#2F88B8"
      stroke-width="18"
    />
    <path d="M254 230C264 228 276 231 286 238L322 270" stroke="#4FC767" stroke-width="18" />
    <path
      d="M278 264L332 314C340 322 340 334 331 342C322 350 309 349 301 341L269 310"
      stroke="#4FC767"
      stroke-width="18"
    />

    <path d="M160 306C188 308 210 316 228 328" stroke="#4FC767" stroke-width="18" />
    <path d="M352 306C324 308 302 316 284 328" stroke="#2F88B8" stroke-width="18" />

    <path d="M204 308L232 336" stroke="#2F88B8" stroke-width="18" />
    <path d="M226 300L254 328" stroke="#2F88B8" stroke-width="18" />
    <path d="M248 294L276 322" stroke="#2F88B8" stroke-width="18" />
    <path d="M274 290L302 318" stroke="#4FC767" stroke-width="18" />
  </g>
</svg>
